<svg width="1113" height="742" viewBox="0 0 1113 742" fill="none" xmlns="http://www.w3.org/2000/svg">
<path fill-rule="evenodd" clip-rule="evenodd" d="M556.503 80C558.531 91.8908 563.956 99.8456 568.351 106.289C571.822 111.379 574.651 115.526 574.651 119.925C574.651 129.891 566.526 137.97 556.503 137.97C546.481 137.97 538.356 129.891 538.356 119.925C538.356 115.526 541.184 111.379 544.656 106.289C549.051 99.8456 554.476 91.8908 556.503 80ZM609.23 150.863C608.652 143.09 607.938 133.493 612.137 122.184C604.426 131.469 595.743 135.65 588.711 139.037C583.154 141.712 578.628 143.892 576.425 147.701C571.433 156.332 574.423 167.384 583.102 172.386C591.782 177.389 602.865 174.447 607.856 165.817C610.06 162.007 609.687 157.005 609.23 150.863ZM524.512 139.039C517.479 135.652 508.796 131.471 501.085 122.186C505.285 133.495 504.571 143.092 503.992 150.865C503.535 157.006 503.163 162.009 505.366 165.819C510.358 174.449 521.44 177.391 530.12 172.388C538.8 167.386 541.789 156.334 536.798 147.703C534.594 143.894 530.068 141.714 524.512 139.039ZM555.567 158.781C554.894 159.136 554.43 160.376 553.503 162.854L492.372 326.244C491.699 328.042 491.363 328.942 491.551 329.582C491.716 330.14 492.115 330.599 492.645 330.839C493.253 331.115 494.19 330.906 496.065 330.488L496.065 330.488L496.065 330.488L529.911 322.95L554.509 357.767C555.389 359.013 555.829 359.636 556.376 359.856C556.855 360.048 557.389 360.048 557.868 359.856C558.415 359.636 558.855 359.013 559.736 357.767L584.164 323.189L616.935 330.488L616.935 330.488L616.936 330.488C618.81 330.906 619.747 331.115 620.355 330.839C620.885 330.599 621.284 330.14 621.449 329.582C621.637 328.942 621.301 328.042 620.628 326.244L559.497 162.854C558.57 160.376 558.106 159.136 557.433 158.781C556.849 158.474 556.151 158.474 555.567 158.781ZM554.12 217.369C555.047 214.899 555.51 213.664 556.184 213.309C556.767 213.002 557.464 213.002 558.047 213.309C558.72 213.664 559.184 214.899 560.111 217.369L569.466 242.287C570.012 243.74 570.285 244.467 570.155 245.048C570.041 245.557 569.734 246.001 569.297 246.286C568.799 246.612 568.023 246.612 566.471 246.612H547.76C546.208 246.612 545.432 246.612 544.934 246.286C544.497 246.001 544.19 245.557 544.076 245.048C543.946 244.467 544.219 243.74 544.764 242.287L554.12 217.369Z" fill="#FAD5BB"/>
<g clip-path="url(#clip0_301_2776)">
<path d="M269.805 531.715V533.57C269.674 539.039 269.089 544.703 268.047 550.562C267.07 556.422 265.671 562.281 263.848 568.141C262.025 574 259.844 579.794 257.305 585.523C254.766 591.253 251.901 596.721 248.711 601.93C245.586 607.203 242.201 612.118 238.555 616.676C234.909 621.298 231.068 625.367 227.031 628.883L212.48 620.484C214.759 616.643 216.81 612.444 218.633 607.887C220.521 603.395 222.214 598.674 223.711 593.727C225.208 588.779 226.478 583.701 227.52 578.492C228.626 573.284 229.538 568.108 230.254 562.965C230.97 557.822 231.491 552.776 231.816 547.828C232.207 542.815 232.402 538.062 232.402 533.57C232.402 530.055 232.37 526.083 232.305 521.656C232.305 517.164 232.044 512.607 231.523 507.984C231.068 503.362 230.286 498.87 229.18 494.508C228.073 490.081 226.413 486.142 224.199 482.691C222.051 479.241 219.251 476.474 215.801 474.391C212.415 472.307 208.184 471.266 203.105 471.266C198.613 471.266 194.74 472.047 191.484 473.609C188.294 475.107 185.56 477.158 183.281 479.762C181.068 482.301 179.277 485.263 177.91 488.648C176.608 492.034 175.566 495.615 174.785 499.391C174.069 503.102 173.581 506.878 173.32 510.719C173.125 514.495 173.027 518.076 173.027 521.461V548.707H215.117V564.82H173.027V599H134.258V527.516C134.258 517.294 135.885 507.789 139.141 499C142.396 490.211 146.986 482.594 152.91 476.148C158.9 469.638 166.061 464.56 174.395 460.914C182.793 457.203 192.135 455.348 202.422 455.348C209.388 455.348 215.898 456.357 221.953 458.375C228.073 460.328 233.639 463.062 238.652 466.578C243.665 470.029 248.125 474.163 252.031 478.98C256.003 483.733 259.29 488.941 261.895 494.605C264.564 500.27 266.582 506.259 267.949 512.574C269.316 518.889 269.935 525.27 269.805 531.715ZM387.285 496.168L368.73 526.93C367.949 524.326 366.94 521.396 365.703 518.141C364.466 514.885 362.936 511.858 361.113 509.059C359.29 506.194 357.109 503.818 354.57 501.93C352.031 499.977 349.102 499 345.781 499C342.721 499 340.052 499.781 337.773 501.344C335.56 502.906 333.672 504.957 332.109 507.496C330.547 509.97 329.245 512.802 328.203 515.992C327.227 519.117 326.445 522.307 325.859 525.562C325.339 528.753 324.98 531.845 324.785 534.84C324.59 537.77 324.492 540.309 324.492 542.457V599H291.387V486.207H304.082L317.461 512.477C319.284 508.245 321.367 504.371 323.711 500.855C326.055 497.275 328.757 494.215 331.816 491.676C334.876 489.072 338.327 487.053 342.168 485.621C346.074 484.189 350.469 483.473 355.352 483.473C357.891 483.473 360.723 483.701 363.848 484.156C366.973 484.547 370.033 485.263 373.027 486.305C376.022 487.281 378.789 488.583 381.328 490.211C383.867 491.839 385.853 493.824 387.285 496.168ZM502.324 514.137L488.066 519.801C485.788 512.639 481.979 507.138 476.641 503.297C471.302 499.456 464.889 497.535 457.402 497.535C453.366 497.535 449.753 498.186 446.562 499.488C443.438 500.725 440.671 502.451 438.262 504.664C435.918 506.878 433.9 509.449 432.207 512.379C430.579 515.309 429.245 518.434 428.203 521.754C427.161 525.074 426.413 528.525 425.957 532.105C425.501 535.621 425.273 539.039 425.273 542.359C425.273 545.94 425.469 549.553 425.859 553.199C426.25 556.845 426.901 560.361 427.812 563.746C428.789 567.066 430.059 570.191 431.621 573.121C433.184 575.986 435.137 578.492 437.48 580.641C439.889 582.789 442.721 584.482 445.977 585.719C449.297 586.956 453.105 587.574 457.402 587.574C460.853 587.574 464.141 587.053 467.266 586.012C470.391 584.97 473.255 583.505 475.859 581.617C478.464 579.729 480.775 577.483 482.793 574.879C484.811 572.275 486.406 569.378 487.578 566.188L501.934 571.461C499.785 576.604 496.921 581.064 493.34 584.84C489.824 588.551 485.82 591.643 481.328 594.117C476.836 596.526 472.018 598.316 466.875 599.488C461.732 600.66 456.523 601.246 451.25 601.246C442.721 601.246 434.811 599.814 427.52 596.949C420.228 594.02 413.913 589.951 408.574 584.742C403.301 579.469 399.167 573.251 396.172 566.09C393.177 558.863 391.68 550.953 391.68 542.359C391.68 533.701 393.145 525.758 396.074 518.531C399.069 511.305 403.203 505.087 408.477 499.879C413.75 494.671 420.033 490.634 427.324 487.77C434.616 484.905 442.591 483.473 451.25 483.473C456.719 483.473 462.057 484.091 467.266 485.328C472.474 486.5 477.292 488.355 481.719 490.895C486.211 493.368 490.215 496.526 493.73 500.367C497.311 504.208 500.176 508.798 502.324 514.137ZM635.43 599H602.422V585.523C598.516 590.862 593.796 594.833 588.262 597.438C582.793 599.977 576.771 601.246 570.195 601.246C561.602 601.246 553.919 599.716 547.148 596.656C540.378 593.596 534.648 589.43 529.961 584.156C525.273 578.818 521.693 572.568 519.219 565.406C516.745 558.245 515.508 550.562 515.508 542.359C515.508 534.156 516.745 526.474 519.219 519.312C521.693 512.151 525.273 505.934 529.961 500.66C534.648 495.322 540.378 491.122 547.148 488.062C553.919 485.003 561.602 483.473 570.195 483.473C574.557 483.473 578.691 484.124 582.598 485.426C586.569 486.728 590.182 488.583 593.438 490.992C596.758 493.336 599.655 496.201 602.129 499.586C604.668 502.906 606.654 506.617 608.086 510.719L622.734 486.207H635.43V599ZM602.227 542.359C602.227 539.43 602.064 536.337 601.738 533.082C601.478 529.827 600.99 526.604 600.273 523.414C599.557 520.224 598.548 517.197 597.246 514.332C596.009 511.402 594.382 508.831 592.363 506.617C590.41 504.339 588.034 502.548 585.234 501.246C582.435 499.944 579.18 499.293 575.469 499.293C571.758 499.293 568.535 499.977 565.801 501.344C563.066 502.646 560.723 504.436 558.77 506.715C556.816 508.928 555.189 511.5 553.887 514.43C552.65 517.359 551.673 520.419 550.957 523.609C550.241 526.799 549.72 530.022 549.395 533.277C549.134 536.467 549.004 539.495 549.004 542.359C549.004 545.224 549.134 548.284 549.395 551.539C549.72 554.794 550.241 558.017 550.957 561.207C551.673 564.397 552.65 567.457 553.887 570.387C555.189 573.316 556.816 575.921 558.77 578.199C560.723 580.413 563.066 582.203 565.801 583.57C568.535 584.872 571.758 585.523 575.469 585.523C578.854 585.523 581.849 584.84 584.453 583.473C587.122 582.04 589.434 580.152 591.387 577.809C593.405 575.465 595.098 572.796 596.465 569.801C597.832 566.806 598.939 563.714 599.785 560.523C600.632 557.333 601.25 554.176 601.641 551.051C602.031 547.861 602.227 544.964 602.227 542.359ZM776.738 599H764.043L749.395 574.488C747.962 578.59 745.977 582.301 743.438 585.621C740.964 588.941 738.066 591.806 734.746 594.215C731.491 596.559 727.878 598.382 723.906 599.684C720 600.986 715.866 601.637 711.504 601.637C702.91 601.637 695.228 600.107 688.457 597.047C681.686 593.987 675.957 589.82 671.27 584.547C666.582 579.208 663.001 572.958 660.527 565.797C658.053 558.635 656.816 550.953 656.816 542.75C656.816 534.547 658.053 526.865 660.527 519.703C663.001 512.542 666.582 506.324 671.27 501.051C675.957 495.777 681.686 491.611 688.457 488.551C695.228 485.491 702.91 483.961 711.504 483.961C718.079 483.961 724.102 485.23 729.57 487.77C735.104 490.309 739.824 494.28 743.73 499.684V444.703H776.738V599ZM743.535 542.75C743.535 540.146 743.34 537.281 742.949 534.156C742.559 531.031 741.94 527.874 741.094 524.684C740.247 521.493 739.141 518.401 737.773 515.406C736.406 512.411 734.714 509.742 732.695 507.398C730.742 505.055 728.431 503.199 725.762 501.832C723.158 500.4 720.163 499.684 716.777 499.684C713.066 499.684 709.844 500.367 707.109 501.734C704.375 503.036 702.031 504.827 700.078 507.105C698.125 509.319 696.497 511.891 695.195 514.82C693.958 517.75 692.982 520.81 692.266 524C691.549 527.19 691.029 530.413 690.703 533.668C690.443 536.858 690.312 539.885 690.312 542.75C690.312 545.615 690.443 548.674 690.703 551.93C691.029 555.12 691.549 558.31 692.266 561.5C692.982 564.69 693.958 567.783 695.195 570.777C696.497 573.707 698.125 576.311 700.078 578.59C702.031 580.803 704.375 582.594 707.109 583.961C709.844 585.263 713.066 585.914 716.777 585.914C720.488 585.914 723.743 585.263 726.543 583.961C729.342 582.659 731.719 580.901 733.672 578.688C735.69 576.409 737.318 573.837 738.555 570.973C739.857 568.043 740.866 564.983 741.582 561.793C742.298 558.538 742.786 555.283 743.047 552.027C743.372 548.772 743.535 545.68 743.535 542.75ZM838.945 458.961C838.945 461.435 838.457 463.779 837.48 465.992C836.569 468.206 835.299 470.126 833.672 471.754C832.044 473.382 830.124 474.684 827.91 475.66C825.697 476.572 823.353 477.027 820.879 477.027C818.405 477.027 816.061 476.572 813.848 475.66C811.699 474.684 809.811 473.382 808.184 471.754C806.556 470.126 805.254 468.206 804.277 465.992C803.366 463.779 802.91 461.435 802.91 458.961C802.91 456.487 803.366 454.176 804.277 452.027C805.254 449.814 806.556 447.893 808.184 446.266C809.811 444.638 811.699 443.368 813.848 442.457C816.061 441.48 818.405 440.992 820.879 440.992C823.353 440.992 825.697 441.48 827.91 442.457C830.124 443.368 832.044 444.638 833.672 446.266C835.299 447.893 836.569 449.814 837.48 452.027C838.457 454.176 838.945 456.487 838.945 458.961ZM837.48 599H804.375V486.305H837.48V599ZM978.789 599H945.781V585.523C941.875 590.862 937.155 594.833 931.621 597.438C926.152 599.977 920.13 601.246 913.555 601.246C904.961 601.246 897.279 599.716 890.508 596.656C883.737 593.596 878.008 589.43 873.32 584.156C868.633 578.818 865.052 572.568 862.578 565.406C860.104 558.245 858.867 550.562 858.867 542.359C858.867 534.156 860.104 526.474 862.578 519.312C865.052 512.151 868.633 505.934 873.32 500.66C878.008 495.322 883.737 491.122 890.508 488.062C897.279 485.003 904.961 483.473 913.555 483.473C917.917 483.473 922.051 484.124 925.957 485.426C929.928 486.728 933.542 488.583 936.797 490.992C940.117 493.336 943.014 496.201 945.488 499.586C948.027 502.906 950.013 506.617 951.445 510.719L966.094 486.207H978.789V599ZM945.586 542.359C945.586 539.43 945.423 536.337 945.098 533.082C944.837 529.827 944.349 526.604 943.633 523.414C942.917 520.224 941.908 517.197 940.605 514.332C939.368 511.402 937.741 508.831 935.723 506.617C933.77 504.339 931.393 502.548 928.594 501.246C925.794 499.944 922.539 499.293 918.828 499.293C915.117 499.293 911.895 499.977 909.16 501.344C906.426 502.646 904.082 504.436 902.129 506.715C900.176 508.928 898.548 511.5 897.246 514.43C896.009 517.359 895.033 520.419 894.316 523.609C893.6 526.799 893.079 530.022 892.754 533.277C892.493 536.467 892.363 539.495 892.363 542.359C892.363 545.224 892.493 548.284 892.754 551.539C893.079 554.794 893.6 558.017 894.316 561.207C895.033 564.397 896.009 567.457 897.246 570.387C898.548 573.316 900.176 575.921 902.129 578.199C904.082 580.413 906.426 582.203 909.16 583.57C911.895 584.872 915.117 585.523 918.828 585.523C922.214 585.523 925.208 584.84 927.812 583.473C930.482 582.04 932.793 580.152 934.746 577.809C936.764 575.465 938.457 572.796 939.824 569.801C941.191 566.806 942.298 563.714 943.145 560.523C943.991 557.333 944.609 554.176 945 551.051C945.391 547.861 945.586 544.964 945.586 542.359Z" fill="#FAD5BB"/>
<path d="M923.625 662H904.523V659.383L916.34 642.059H904.523V639.441H923.625V642.059L911.809 659.383H923.625V662ZM950.988 650.672C950.988 651.844 950.832 652.944 950.52 653.973C950.207 655.001 949.771 655.952 949.211 656.824C948.664 657.697 948 658.484 947.219 659.188C946.438 659.878 945.578 660.464 944.641 660.945C943.716 661.427 942.72 661.798 941.652 662.059C940.598 662.319 939.51 662.449 938.391 662.449C937.271 662.449 936.184 662.319 935.129 662.059C934.074 661.798 933.078 661.427 932.141 660.945C931.216 660.464 930.363 659.878 929.582 659.188C928.801 658.484 928.13 657.697 927.57 656.824C927.023 655.952 926.594 655.001 926.281 653.973C925.969 652.931 925.812 651.831 925.812 650.672C925.812 649.513 925.969 648.419 926.281 647.391C926.594 646.349 927.023 645.392 927.57 644.52C928.13 643.647 928.801 642.866 929.582 642.176C930.363 641.473 931.216 640.88 932.141 640.398C933.078 639.917 934.074 639.546 935.129 639.285C936.184 639.025 937.271 638.895 938.391 638.895C939.51 638.895 940.598 639.025 941.652 639.285C942.72 639.546 943.716 639.917 944.641 640.398C945.578 640.88 946.438 641.473 947.219 642.176C948 642.866 948.664 643.647 949.211 644.52C949.771 645.392 950.207 646.349 950.52 647.391C950.832 648.419 950.988 649.513 950.988 650.672ZM944.27 650.672C944.27 650.047 944.23 649.389 944.152 648.699C944.087 647.996 943.97 647.312 943.801 646.648C943.632 645.971 943.397 645.327 943.098 644.715C942.811 644.09 942.453 643.549 942.023 643.094C941.594 642.625 941.079 642.254 940.48 641.98C939.882 641.694 939.185 641.551 938.391 641.551C937.635 641.551 936.965 641.694 936.379 641.98C935.793 642.267 935.279 642.651 934.836 643.133C934.406 643.602 934.042 644.148 933.742 644.773C933.456 645.398 933.221 646.049 933.039 646.727C932.857 647.391 932.727 648.068 932.648 648.758C932.57 649.435 932.531 650.073 932.531 650.672C932.531 651.271 932.57 651.915 932.648 652.605C932.727 653.283 932.857 653.96 933.039 654.637C933.221 655.314 933.456 655.965 933.742 656.59C934.042 657.202 934.406 657.749 934.836 658.23C935.279 658.699 935.793 659.077 936.379 659.363C936.965 659.65 937.635 659.793 938.391 659.793C939.172 659.793 939.862 659.656 940.461 659.383C941.06 659.096 941.574 658.719 942.004 658.25C942.447 657.781 942.811 657.241 943.098 656.629C943.384 656.017 943.612 655.372 943.781 654.695C943.964 654.018 944.087 653.335 944.152 652.645C944.23 651.954 944.27 651.297 944.27 650.672ZM978.996 650.672C978.996 651.844 978.84 652.944 978.527 653.973C978.215 655.001 977.779 655.952 977.219 656.824C976.672 657.697 976.008 658.484 975.227 659.188C974.445 659.878 973.586 660.464 972.648 660.945C971.724 661.427 970.728 661.798 969.66 662.059C968.605 662.319 967.518 662.449 966.398 662.449C965.279 662.449 964.191 662.319 963.137 662.059C962.082 661.798 961.086 661.427 960.148 660.945C959.224 660.464 958.371 659.878 957.59 659.188C956.809 658.484 956.138 657.697 955.578 656.824C955.031 655.952 954.602 655.001 954.289 653.973C953.977 652.931 953.82 651.831 953.82 650.672C953.82 649.513 953.977 648.419 954.289 647.391C954.602 646.349 955.031 645.392 955.578 644.52C956.138 643.647 956.809 642.866 957.59 642.176C958.371 641.473 959.224 640.88 960.148 640.398C961.086 639.917 962.082 639.546 963.137 639.285C964.191 639.025 965.279 638.895 966.398 638.895C967.518 638.895 968.605 639.025 969.66 639.285C970.728 639.546 971.724 639.917 972.648 640.398C973.586 640.88 974.445 641.473 975.227 642.176C976.008 642.866 976.672 643.647 977.219 644.52C977.779 645.392 978.215 646.349 978.527 647.391C978.84 648.419 978.996 649.513 978.996 650.672ZM972.277 650.672C972.277 650.047 972.238 649.389 972.16 648.699C972.095 647.996 971.978 647.312 971.809 646.648C971.639 645.971 971.405 645.327 971.105 644.715C970.819 644.09 970.461 643.549 970.031 643.094C969.602 642.625 969.087 642.254 968.488 641.98C967.889 641.694 967.193 641.551 966.398 641.551C965.643 641.551 964.973 641.694 964.387 641.98C963.801 642.267 963.286 642.651 962.844 643.133C962.414 643.602 962.049 644.148 961.75 644.773C961.464 645.398 961.229 646.049 961.047 646.727C960.865 647.391 960.734 648.068 960.656 648.758C960.578 649.435 960.539 650.073 960.539 650.672C960.539 651.271 960.578 651.915 960.656 652.605C960.734 653.283 960.865 653.96 961.047 654.637C961.229 655.314 961.464 655.965 961.75 656.59C962.049 657.202 962.414 657.749 962.844 658.23C963.286 658.699 963.801 659.077 964.387 659.363C964.973 659.65 965.643 659.793 966.398 659.793C967.18 659.793 967.87 659.656 968.469 659.383C969.068 659.096 969.582 658.719 970.012 658.25C970.454 657.781 970.819 657.241 971.105 656.629C971.392 656.017 971.62 655.372 971.789 654.695C971.971 654.018 972.095 653.335 972.16 652.645C972.238 651.954 972.277 651.297 972.277 650.672Z" fill="#F7EAE1"/>
</g>
<defs>
<clipPath id="clip0_301_2776">
<rect width="873" height="238" fill="white" transform="translate(120 424)"/>
</clipPath>
</defs>
</svg>
