<svg width="324" height="112" viewBox="0 0 324 112" fill="none" xmlns="http://www.w3.org/2000/svg">
<path fill-rule="evenodd" clip-rule="evenodd" d="M46.8581 24C47.3215 26.7179 48.5616 28.5361 49.566 30.0088C50.3596 31.1724 51.006 32.1202 51.006 33.1257C51.006 35.4036 49.1489 37.2503 46.8581 37.2503C44.5673 37.2503 42.7102 35.4036 42.7102 33.1257C42.7102 32.1202 43.3566 31.1724 44.1502 30.0088C45.1546 28.5361 46.3947 26.7179 46.8581 24ZM58.9099 40.1973C58.7777 38.4206 58.6145 36.227 59.5744 33.642C57.8118 35.7644 55.8272 36.7201 54.2197 37.4941C52.9497 38.1057 51.9151 38.6039 51.4115 39.4746C50.2706 41.4473 50.9539 43.9734 52.9378 45.1169C54.9217 46.2603 57.4549 45.588 58.5959 43.6153C59.0995 42.7445 59.0144 41.601 58.9099 40.1973V40.1973ZM39.5457 37.4945C37.9383 36.7205 35.9536 35.7648 34.191 33.6424C35.151 36.2274 34.9877 38.421 34.8555 40.1977C34.751 41.6015 34.6659 42.745 35.1695 43.6157C36.3105 45.5884 38.8437 46.2607 40.8276 45.1173C42.8115 43.9739 43.4948 41.4477 42.3539 39.475C41.8503 38.6043 40.8157 38.1061 39.5457 37.4945ZM46.391 43.0761C46.0541 43.2536 45.8224 43.8732 45.3588 45.1123L32.7609 78.7837C32.4244 79.6832 32.2561 80.1329 32.3504 80.4531C32.4326 80.7321 32.6322 80.9616 32.8972 81.0816C33.2013 81.2193 33.67 81.1149 34.6073 80.9061L40.7799 79.5313L45.6927 86.4854C46.1328 87.1084 46.3529 87.4198 46.6264 87.5298C46.8658 87.6261 47.1332 87.6261 47.3726 87.5298C47.6461 87.4198 47.8662 87.1084 48.3063 86.4854L53.1805 79.586L59.1073 80.9061C60.0447 81.1149 60.5133 81.2193 60.8174 81.0816C61.0824 80.9616 61.282 80.7321 61.3642 80.4531C61.4585 80.1329 61.2902 79.6832 60.9537 78.7837L48.3559 45.1123C47.8923 43.8732 47.6605 43.2536 47.3236 43.0761C47.0318 42.9222 46.6828 42.9222 46.391 43.0761ZM45.5001 57.5644C45.9637 56.3296 46.1955 55.7121 46.5321 55.5349C46.8237 55.3813 47.1722 55.3813 47.4639 55.5349C47.8005 55.7121 48.0323 56.3296 48.4959 57.5644L49.3804 59.9204C49.6531 60.6469 49.7895 61.0101 49.7245 61.3008C49.6677 61.5551 49.5139 61.7772 49.2958 61.9197C49.0465 62.0827 48.6585 62.0827 47.8825 62.0827H46.1135C45.3375 62.0827 44.9495 62.0827 44.7002 61.9197C44.4821 61.7772 44.3282 61.5551 44.2714 61.3008C44.2064 61.0101 44.3428 60.6469 44.6156 59.9204L45.5001 57.5644Z" fill="#FAD5BB"/>
<g clip-path="url(#clip0_301_2812)">
<path d="M117.668 51.8516V52.2969C117.636 53.6094 117.496 54.9688 117.246 56.375C117.011 57.7812 116.676 59.1875 116.238 60.5938C115.801 62 115.277 63.3906 114.668 64.7656C114.058 66.1406 113.371 67.4531 112.605 68.7031C111.855 69.9688 111.043 71.1484 110.168 72.2422C109.293 73.3516 108.371 74.3281 107.402 75.1719L103.91 73.1562C104.457 72.2344 104.949 71.2266 105.386 70.1328C105.84 69.0547 106.246 67.9219 106.605 66.7344C106.965 65.5469 107.269 64.3281 107.519 63.0781C107.785 61.8281 108.004 60.5859 108.176 59.3516C108.347 58.1172 108.472 56.9062 108.551 55.7188C108.644 54.5156 108.691 53.375 108.691 52.2969C108.691 51.4531 108.683 50.5 108.668 49.4375C108.668 48.3594 108.605 47.2656 108.48 46.1562C108.371 45.0469 108.183 43.9688 107.918 42.9219C107.652 41.8594 107.254 40.9141 106.722 40.0859C106.207 39.2578 105.535 38.5938 104.707 38.0938C103.894 37.5938 102.879 37.3438 101.66 37.3438C100.582 37.3438 99.6521 37.5312 98.8708 37.9062C98.1052 38.2656 97.449 38.7578 96.9021 39.3828C96.3708 39.9922 95.9412 40.7031 95.613 41.5156C95.3005 42.3281 95.0505 43.1875 94.863 44.0938C94.6912 44.9844 94.574 45.8906 94.5115 46.8125C94.4646 47.7188 94.4412 48.5781 94.4412 49.3906V55.9297H104.543V59.7969H94.4412V68H85.1365V50.8438C85.1365 48.3906 85.5271 46.1094 86.3083 44C87.0896 41.8906 88.1912 40.0625 89.613 38.5156C91.0505 36.9531 92.7693 35.7344 94.7693 34.8594C96.7849 33.9688 99.0271 33.5234 101.496 33.5234C103.168 33.5234 104.73 33.7656 106.183 34.25C107.652 34.7188 108.988 35.375 110.191 36.2188C111.394 37.0469 112.465 38.0391 113.402 39.1953C114.355 40.3359 115.144 41.5859 115.769 42.9453C116.41 44.3047 116.894 45.7422 117.222 47.2578C117.551 48.7734 117.699 50.3047 117.668 51.8516ZM145.863 43.3203L141.41 50.7031C141.222 50.0781 140.98 49.375 140.683 48.5938C140.386 47.8125 140.019 47.0859 139.582 46.4141C139.144 45.7266 138.621 45.1562 138.011 44.7031C137.402 44.2344 136.699 44 135.902 44C135.168 44 134.527 44.1875 133.98 44.5625C133.449 44.9375 132.996 45.4297 132.621 46.0391C132.246 46.6328 131.933 47.3125 131.683 48.0781C131.449 48.8281 131.261 49.5938 131.121 50.375C130.996 51.1406 130.91 51.8828 130.863 52.6016C130.816 53.3047 130.793 53.9141 130.793 54.4297V68H122.847V40.9297H125.894L129.105 47.2344C129.543 46.2188 130.043 45.2891 130.605 44.4453C131.168 43.5859 131.816 42.8516 132.551 42.2422C133.285 41.6172 134.113 41.1328 135.035 40.7891C135.972 40.4453 137.027 40.2734 138.199 40.2734C138.808 40.2734 139.488 40.3281 140.238 40.4375C140.988 40.5312 141.722 40.7031 142.441 40.9531C143.16 41.1875 143.824 41.5 144.433 41.8906C145.043 42.2812 145.519 42.7578 145.863 43.3203ZM173.472 47.6328L170.051 48.9922C169.504 47.2734 168.59 45.9531 167.308 45.0312C166.027 44.1094 164.488 43.6484 162.691 43.6484C161.722 43.6484 160.855 43.8047 160.09 44.1172C159.34 44.4141 158.676 44.8281 158.097 45.3594C157.535 45.8906 157.051 46.5078 156.644 47.2109C156.254 47.9141 155.933 48.6641 155.683 49.4609C155.433 50.2578 155.254 51.0859 155.144 51.9453C155.035 52.7891 154.98 53.6094 154.98 54.4062C154.98 55.2656 155.027 56.1328 155.121 57.0078C155.215 57.8828 155.371 58.7266 155.59 59.5391C155.824 60.3359 156.129 61.0859 156.504 61.7891C156.879 62.4766 157.347 63.0781 157.91 63.5938C158.488 64.1094 159.168 64.5156 159.949 64.8125C160.746 65.1094 161.66 65.2578 162.691 65.2578C163.519 65.2578 164.308 65.1328 165.058 64.8828C165.808 64.6328 166.496 64.2812 167.121 63.8281C167.746 63.375 168.301 62.8359 168.785 62.2109C169.269 61.5859 169.652 60.8906 169.933 60.125L173.379 61.3906C172.863 62.625 172.176 63.6953 171.316 64.6016C170.472 65.4922 169.511 66.2344 168.433 66.8281C167.355 67.4062 166.199 67.8359 164.965 68.1172C163.73 68.3984 162.48 68.5391 161.215 68.5391C159.168 68.5391 157.269 68.1953 155.519 67.5078C153.769 66.8047 152.254 65.8281 150.972 64.5781C149.707 63.3125 148.715 61.8203 147.996 60.1016C147.277 58.3672 146.918 56.4688 146.918 54.4062C146.918 52.3281 147.269 50.4219 147.972 48.6875C148.691 46.9531 149.683 45.4609 150.949 44.2109C152.215 42.9609 153.722 41.9922 155.472 41.3047C157.222 40.6172 159.136 40.2734 161.215 40.2734C162.527 40.2734 163.808 40.4219 165.058 40.7188C166.308 41 167.465 41.4453 168.527 42.0547C169.605 42.6484 170.566 43.4062 171.41 44.3281C172.269 45.25 172.957 46.3516 173.472 47.6328ZM205.418 68H197.496V64.7656C196.558 66.0469 195.426 67 194.097 67.625C192.785 68.2344 191.34 68.5391 189.761 68.5391C187.699 68.5391 185.855 68.1719 184.23 67.4375C182.605 66.7031 181.23 65.7031 180.105 64.4375C178.98 63.1562 178.121 61.6562 177.527 59.9375C176.933 58.2188 176.636 56.375 176.636 54.4062C176.636 52.4375 176.933 50.5938 177.527 48.875C178.121 47.1562 178.98 45.6641 180.105 44.3984C181.23 43.1172 182.605 42.1094 184.23 41.375C185.855 40.6406 187.699 40.2734 189.761 40.2734C190.808 40.2734 191.801 40.4297 192.738 40.7422C193.691 41.0547 194.558 41.5 195.34 42.0781C196.136 42.6406 196.832 43.3281 197.426 44.1406C198.035 44.9375 198.511 45.8281 198.855 46.8125L202.371 40.9297H205.418V68ZM197.449 54.4062C197.449 53.7031 197.41 52.9609 197.332 52.1797C197.269 51.3984 197.152 50.625 196.98 49.8594C196.808 49.0938 196.566 48.3672 196.254 47.6797C195.957 46.9766 195.566 46.3594 195.082 45.8281C194.613 45.2812 194.043 44.8516 193.371 44.5391C192.699 44.2266 191.918 44.0703 191.027 44.0703C190.136 44.0703 189.363 44.2344 188.707 44.5625C188.051 44.875 187.488 45.3047 187.019 45.8516C186.551 46.3828 186.16 47 185.847 47.7031C185.551 48.4062 185.316 49.1406 185.144 49.9062C184.972 50.6719 184.847 51.4453 184.769 52.2266C184.707 52.9922 184.676 53.7188 184.676 54.4062C184.676 55.0938 184.707 55.8281 184.769 56.6094C184.847 57.3906 184.972 58.1641 185.144 58.9297C185.316 59.6953 185.551 60.4297 185.847 61.1328C186.16 61.8359 186.551 62.4609 187.019 63.0078C187.488 63.5391 188.051 63.9688 188.707 64.2969C189.363 64.6094 190.136 64.7656 191.027 64.7656C191.84 64.7656 192.558 64.6016 193.183 64.2734C193.824 63.9297 194.379 63.4766 194.847 62.9141C195.332 62.3516 195.738 61.7109 196.066 60.9922C196.394 60.2734 196.66 59.5312 196.863 58.7656C197.066 58 197.215 57.2422 197.308 56.4922C197.402 55.7266 197.449 55.0312 197.449 54.4062ZM239.332 68H236.285L232.769 62.1172C232.426 63.1016 231.949 63.9922 231.34 64.7891C230.746 65.5859 230.051 66.2734 229.254 66.8516C228.472 67.4141 227.605 67.8516 226.652 68.1641C225.715 68.4766 224.722 68.6328 223.676 68.6328C221.613 68.6328 219.769 68.2656 218.144 67.5312C216.519 66.7969 215.144 65.7969 214.019 64.5312C212.894 63.25 212.035 61.75 211.441 60.0312C210.847 58.3125 210.551 56.4688 210.551 54.5C210.551 52.5312 210.847 50.6875 211.441 48.9688C212.035 47.25 212.894 45.7578 214.019 44.4922C215.144 43.2266 216.519 42.2266 218.144 41.4922C219.769 40.7578 221.613 40.3906 223.676 40.3906C225.254 40.3906 226.699 40.6953 228.011 41.3047C229.34 41.9141 230.472 42.8672 231.41 44.1641V30.9688H239.332V68ZM231.363 54.5C231.363 53.875 231.316 53.1875 231.222 52.4375C231.129 51.6875 230.98 50.9297 230.777 50.1641C230.574 49.3984 230.308 48.6562 229.98 47.9375C229.652 47.2188 229.246 46.5781 228.761 46.0156C228.293 45.4531 227.738 45.0078 227.097 44.6797C226.472 44.3359 225.754 44.1641 224.941 44.1641C224.051 44.1641 223.277 44.3281 222.621 44.6562C221.965 44.9688 221.402 45.3984 220.933 45.9453C220.465 46.4766 220.074 47.0938 219.761 47.7969C219.465 48.5 219.23 49.2344 219.058 50C218.886 50.7656 218.761 51.5391 218.683 52.3203C218.621 53.0859 218.59 53.8125 218.59 54.5C218.59 55.1875 218.621 55.9219 218.683 56.7031C218.761 57.4688 218.886 58.2344 219.058 59C219.23 59.7656 219.465 60.5078 219.761 61.2266C220.074 61.9297 220.465 62.5547 220.933 63.1016C221.402 63.6328 221.965 64.0625 222.621 64.3906C223.277 64.7031 224.051 64.8594 224.941 64.8594C225.832 64.8594 226.613 64.7031 227.285 64.3906C227.957 64.0781 228.527 63.6562 228.996 63.125C229.48 62.5781 229.871 61.9609 230.168 61.2734C230.48 60.5703 230.722 59.8359 230.894 59.0703C231.066 58.2891 231.183 57.5078 231.246 56.7266C231.324 55.9453 231.363 55.2031 231.363 54.5ZM254.261 34.3906C254.261 34.9844 254.144 35.5469 253.91 36.0781C253.691 36.6094 253.386 37.0703 252.996 37.4609C252.605 37.8516 252.144 38.1641 251.613 38.3984C251.082 38.6172 250.519 38.7266 249.926 38.7266C249.332 38.7266 248.769 38.6172 248.238 38.3984C247.722 38.1641 247.269 37.8516 246.879 37.4609C246.488 37.0703 246.176 36.6094 245.941 36.0781C245.722 35.5469 245.613 34.9844 245.613 34.3906C245.613 33.7969 245.722 33.2422 245.941 32.7266C246.176 32.1953 246.488 31.7344 246.879 31.3438C247.269 30.9531 247.722 30.6484 248.238 30.4297C248.769 30.1953 249.332 30.0781 249.926 30.0781C250.519 30.0781 251.082 30.1953 251.613 30.4297C252.144 30.6484 252.605 30.9531 252.996 31.3438C253.386 31.7344 253.691 32.1953 253.91 32.7266C254.144 33.2422 254.261 33.7969 254.261 34.3906ZM253.91 68H245.965V40.9531H253.91V68ZM287.824 68H279.902V64.7656C278.965 66.0469 277.832 67 276.504 67.625C275.191 68.2344 273.746 68.5391 272.168 68.5391C270.105 68.5391 268.261 68.1719 266.636 67.4375C265.011 66.7031 263.636 65.7031 262.511 64.4375C261.386 63.1562 260.527 61.6562 259.933 59.9375C259.34 58.2188 259.043 56.375 259.043 54.4062C259.043 52.4375 259.34 50.5938 259.933 48.875C260.527 47.1562 261.386 45.6641 262.511 44.3984C263.636 43.1172 265.011 42.1094 266.636 41.375C268.261 40.6406 270.105 40.2734 272.168 40.2734C273.215 40.2734 274.207 40.4297 275.144 40.7422C276.097 41.0547 276.965 41.5 277.746 42.0781C278.543 42.6406 279.238 43.3281 279.832 44.1406C280.441 44.9375 280.918 45.8281 281.261 46.8125L284.777 40.9297H287.824V68ZM279.855 54.4062C279.855 53.7031 279.816 52.9609 279.738 52.1797C279.676 51.3984 279.558 50.625 279.386 49.8594C279.215 49.0938 278.972 48.3672 278.66 47.6797C278.363 46.9766 277.972 46.3594 277.488 45.8281C277.019 45.2812 276.449 44.8516 275.777 44.5391C275.105 44.2266 274.324 44.0703 273.433 44.0703C272.543 44.0703 271.769 44.2344 271.113 44.5625C270.457 44.875 269.894 45.3047 269.426 45.8516C268.957 46.3828 268.566 47 268.254 47.7031C267.957 48.4062 267.722 49.1406 267.551 49.9062C267.379 50.6719 267.254 51.4453 267.176 52.2266C267.113 52.9922 267.082 53.7188 267.082 54.4062C267.082 55.0938 267.113 55.8281 267.176 56.6094C267.254 57.3906 267.379 58.1641 267.551 58.9297C267.722 59.6953 267.957 60.4297 268.254 61.1328C268.566 61.8359 268.957 62.4609 269.426 63.0078C269.894 63.5391 270.457 63.9688 271.113 64.2969C271.769 64.6094 272.543 64.7656 273.433 64.7656C274.246 64.7656 274.965 64.6016 275.59 64.2734C276.23 63.9297 276.785 63.4766 277.254 62.9141C277.738 62.3516 278.144 61.7109 278.472 60.9922C278.801 60.2734 279.066 59.5312 279.269 58.7656C279.472 58 279.621 57.2422 279.715 56.4922C279.808 55.7266 279.855 55.0312 279.855 54.4062Z" fill="#FAD5BB"/>
<path d="M267.836 85H261.15V84.084L265.286 78.0205H261.15V77.1045H267.836V78.0205L263.7 84.084H267.836V85ZM277.413 81.0352C277.413 81.4453 277.358 81.8304 277.249 82.1904C277.139 82.5505 276.987 82.8831 276.791 83.1885C276.599 83.4938 276.367 83.7695 276.094 84.0156C275.82 84.2572 275.519 84.4622 275.191 84.6309C274.868 84.7995 274.519 84.9294 274.145 85.0205C273.776 85.1117 273.396 85.1572 273.004 85.1572C272.612 85.1572 272.231 85.1117 271.862 85.0205C271.493 84.9294 271.144 84.7995 270.816 84.6309C270.493 84.4622 270.194 84.2572 269.921 84.0156C269.647 83.7695 269.413 83.4938 269.217 83.1885C269.025 82.8831 268.875 82.5505 268.765 82.1904C268.656 81.8258 268.601 81.4408 268.601 81.0352C268.601 80.6296 268.656 80.2467 268.765 79.8867C268.875 79.5221 269.025 79.1872 269.217 78.8818C269.413 78.5765 269.647 78.3031 269.921 78.0615C270.194 77.8154 270.493 77.6081 270.816 77.4395C271.144 77.2708 271.493 77.141 271.862 77.0498C272.231 76.9587 272.612 76.9131 273.004 76.9131C273.396 76.9131 273.776 76.9587 274.145 77.0498C274.519 77.141 274.868 77.2708 275.191 77.4395C275.519 77.6081 275.82 77.8154 276.094 78.0615C276.367 78.3031 276.599 78.5765 276.791 78.8818C276.987 79.1872 277.139 79.5221 277.249 79.8867C277.358 80.2467 277.413 80.6296 277.413 81.0352ZM275.061 81.0352C275.061 80.8164 275.048 80.5863 275.02 80.3447C274.997 80.0986 274.956 79.8594 274.897 79.627C274.838 79.39 274.756 79.1644 274.651 78.9502C274.551 78.7314 274.426 78.5423 274.275 78.3828C274.125 78.2188 273.945 78.0889 273.735 77.9932C273.525 77.8929 273.282 77.8428 273.004 77.8428C272.739 77.8428 272.505 77.8929 272.3 77.9932C272.094 78.0934 271.914 78.2279 271.76 78.3965C271.609 78.5605 271.482 78.752 271.377 78.9707C271.276 79.1895 271.194 79.4173 271.131 79.6543C271.067 79.8867 271.021 80.1237 270.994 80.3652C270.967 80.6022 270.953 80.8255 270.953 81.0352C270.953 81.2448 270.967 81.4704 270.994 81.7119C271.021 81.9489 271.067 82.1859 271.131 82.4229C271.194 82.6598 271.276 82.8877 271.377 83.1064C271.482 83.3206 271.609 83.512 271.76 83.6807C271.914 83.8447 272.094 83.9769 272.3 84.0771C272.505 84.1774 272.739 84.2275 273.004 84.2275C273.277 84.2275 273.519 84.1797 273.728 84.084C273.938 83.9837 274.118 83.8516 274.268 83.6875C274.423 83.5234 274.551 83.3343 274.651 83.1201C274.751 82.9059 274.831 82.6803 274.89 82.4434C274.954 82.2064 274.997 81.9671 275.02 81.7256C275.048 81.484 275.061 81.2539 275.061 81.0352ZM287.216 81.0352C287.216 81.4453 287.161 81.8304 287.052 82.1904C286.942 82.5505 286.789 82.8831 286.594 83.1885C286.402 83.4938 286.17 83.7695 285.896 84.0156C285.623 84.2572 285.322 84.4622 284.994 84.6309C284.67 84.7995 284.322 84.9294 283.948 85.0205C283.579 85.1117 283.198 85.1572 282.806 85.1572C282.414 85.1572 282.034 85.1117 281.665 85.0205C281.296 84.9294 280.947 84.7995 280.619 84.6309C280.295 84.4622 279.997 84.2572 279.723 84.0156C279.45 83.7695 279.215 83.4938 279.019 83.1885C278.828 82.8831 278.677 82.5505 278.568 82.1904C278.459 81.8258 278.404 81.4408 278.404 81.0352C278.404 80.6296 278.459 80.2467 278.568 79.8867C278.677 79.5221 278.828 79.1872 279.019 78.8818C279.215 78.5765 279.45 78.3031 279.723 78.0615C279.997 77.8154 280.295 77.6081 280.619 77.4395C280.947 77.2708 281.296 77.141 281.665 77.0498C282.034 76.9587 282.414 76.9131 282.806 76.9131C283.198 76.9131 283.579 76.9587 283.948 77.0498C284.322 77.141 284.67 77.2708 284.994 77.4395C285.322 77.6081 285.623 77.8154 285.896 78.0615C286.17 78.3031 286.402 78.5765 286.594 78.8818C286.789 79.1872 286.942 79.5221 287.052 79.8867C287.161 80.2467 287.216 80.6296 287.216 81.0352ZM284.864 81.0352C284.864 80.8164 284.85 80.5863 284.823 80.3447C284.8 80.0986 284.759 79.8594 284.7 79.627C284.641 79.39 284.559 79.1644 284.454 78.9502C284.354 78.7314 284.228 78.5423 284.078 78.3828C283.927 78.2188 283.747 78.0889 283.538 77.9932C283.328 77.8929 283.084 77.8428 282.806 77.8428C282.542 77.8428 282.307 77.8929 282.102 77.9932C281.897 78.0934 281.717 78.2279 281.562 78.3965C281.412 78.5605 281.284 78.752 281.179 78.9707C281.079 79.1895 280.997 79.4173 280.933 79.6543C280.87 79.8867 280.824 80.1237 280.797 80.3652C280.769 80.6022 280.756 80.8255 280.756 81.0352C280.756 81.2448 280.769 81.4704 280.797 81.7119C280.824 81.9489 280.87 82.1859 280.933 82.4229C280.997 82.6598 281.079 82.8877 281.179 83.1064C281.284 83.3206 281.412 83.512 281.562 83.6807C281.717 83.8447 281.897 83.9769 282.102 84.0771C282.307 84.1774 282.542 84.2275 282.806 84.2275C283.08 84.2275 283.321 84.1797 283.531 84.084C283.741 83.9837 283.921 83.8516 284.071 83.6875C284.226 83.5234 284.354 83.3343 284.454 83.1201C284.554 82.9059 284.634 82.6803 284.693 82.4434C284.757 82.2064 284.8 81.9671 284.823 81.7256C284.85 81.484 284.864 81.2539 284.864 81.0352Z" fill="#F7EAE1"/>
</g>
<defs>
<clipPath id="clip0_301_2812">
<rect width="210" height="58" fill="white" transform="translate(81.7146 27)"/>
</clipPath>
</defs>
</svg>
