<svg width="1307" height="440" viewBox="0 0 1307 440" fill="none" xmlns="http://www.w3.org/2000/svg">
<g filter="url(#filter0_d_301_2764)">
<path fill-rule="evenodd" clip-rule="evenodd" d="M185.004 80C187.032 91.8908 192.457 99.8456 196.851 106.289C200.323 111.379 203.151 115.526 203.151 119.925C203.151 129.891 195.027 137.97 185.004 137.97C174.982 137.97 166.857 129.891 166.857 119.925C166.857 115.526 169.685 111.379 173.157 106.289C177.551 99.8456 182.977 91.8908 185.004 80ZM237.731 150.863C237.152 143.09 236.438 133.493 240.638 122.184C232.927 131.469 224.244 135.65 217.211 139.037C211.655 141.712 207.129 143.892 204.925 147.701C199.934 156.332 202.923 167.384 211.603 172.386C220.283 177.389 231.365 174.447 236.357 165.817C238.56 162.007 238.188 157.005 237.731 150.863ZM153.012 139.039C145.98 135.652 137.297 131.471 129.586 122.186C133.785 133.495 133.071 143.092 132.493 150.865C132.036 157.006 131.663 162.009 133.867 165.819C138.858 174.449 149.941 177.391 158.621 172.388C167.3 167.386 170.29 156.334 165.298 147.703C163.095 143.894 158.569 141.714 153.012 139.039ZM184.068 158.781C183.394 159.136 182.931 160.376 182.004 162.854L120.873 326.244C120.2 328.042 119.863 328.942 120.052 329.582C120.216 330.14 120.615 330.599 121.145 330.839C121.754 331.115 122.691 330.906 124.565 330.488L124.566 330.488L124.566 330.488L158.412 322.95L183.009 357.767C183.889 359.013 184.33 359.636 184.877 359.856C185.355 360.048 185.89 360.048 186.369 359.856C186.916 359.636 187.356 359.013 188.236 357.767L212.664 323.189L245.436 330.488L245.436 330.488L245.436 330.488C247.311 330.906 248.248 331.115 248.856 330.839C249.386 330.599 249.785 330.14 249.949 329.582C250.138 328.942 249.802 328.042 249.128 326.244L187.998 162.854C187.071 160.376 186.607 159.136 185.933 158.781C185.35 158.474 184.652 158.474 184.068 158.781ZM182.62 217.369C183.547 214.899 184.011 213.664 184.684 213.309C185.268 213.002 185.965 213.002 186.548 213.309C187.221 213.664 187.685 214.899 188.612 217.369L197.967 242.287C198.513 243.74 198.785 244.467 198.656 245.048C198.542 245.557 198.234 246.001 197.798 246.286C197.299 246.612 196.523 246.612 194.971 246.612H176.261C174.709 246.612 173.933 246.612 173.434 246.286C172.998 246.001 172.69 245.557 172.577 245.048C172.447 244.467 172.72 243.74 173.265 242.287L182.62 217.369Z" fill="#FAD5BB"/>
</g>
<g clip-path="url(#clip0_301_2764)">
<g filter="url(#filter1_d_301_2764)">
<path d="M463.806 208.715V210.57C463.676 216.039 463.09 221.703 462.048 227.562C461.072 233.422 459.672 239.281 457.849 245.141C456.026 251 453.845 256.794 451.306 262.523C448.767 268.253 445.902 273.721 442.712 278.93C439.587 284.203 436.202 289.118 432.556 293.676C428.91 298.298 425.069 302.367 421.033 305.883L406.482 297.484C408.76 293.643 410.811 289.444 412.634 284.887C414.522 280.395 416.215 275.674 417.712 270.727C419.21 265.779 420.479 260.701 421.521 255.492C422.628 250.284 423.539 245.108 424.255 239.965C424.971 234.822 425.492 229.776 425.818 224.828C426.208 219.815 426.404 215.062 426.404 210.57C426.404 207.055 426.371 203.083 426.306 198.656C426.306 194.164 426.046 189.607 425.525 184.984C425.069 180.362 424.288 175.87 423.181 171.508C422.074 167.081 420.414 163.142 418.201 159.691C416.052 156.241 413.253 153.474 409.802 151.391C406.417 149.307 402.185 148.266 397.107 148.266C392.615 148.266 388.741 149.047 385.486 150.609C382.296 152.107 379.561 154.158 377.283 156.762C375.069 159.301 373.279 162.263 371.912 165.648C370.609 169.034 369.568 172.615 368.787 176.391C368.07 180.102 367.582 183.878 367.322 187.719C367.126 191.495 367.029 195.076 367.029 198.461V225.707H409.119V241.82H367.029V276H328.259V204.516C328.259 194.294 329.887 184.789 333.142 176C336.397 167.211 340.987 159.594 346.912 153.148C352.901 146.638 360.063 141.56 368.396 137.914C376.794 134.203 386.137 132.348 396.423 132.348C403.389 132.348 409.9 133.357 415.954 135.375C422.074 137.328 427.641 140.062 432.654 143.578C437.667 147.029 442.126 151.163 446.033 155.98C450.004 160.733 453.292 165.941 455.896 171.605C458.565 177.27 460.583 183.259 461.951 189.574C463.318 195.889 463.936 202.27 463.806 208.715ZM581.287 173.168L562.732 203.93C561.951 201.326 560.941 198.396 559.704 195.141C558.468 191.885 556.938 188.858 555.115 186.059C553.292 183.194 551.111 180.818 548.572 178.93C546.033 176.977 543.103 176 539.783 176C536.723 176 534.053 176.781 531.775 178.344C529.561 179.906 527.673 181.957 526.111 184.496C524.548 186.97 523.246 189.802 522.204 192.992C521.228 196.117 520.447 199.307 519.861 202.562C519.34 205.753 518.982 208.845 518.787 211.84C518.591 214.77 518.494 217.309 518.494 219.457V276H485.388V163.207H498.083L511.462 189.477C513.285 185.245 515.369 181.371 517.712 177.855C520.056 174.275 522.758 171.215 525.818 168.676C528.878 166.072 532.328 164.053 536.169 162.621C540.076 161.189 544.47 160.473 549.353 160.473C551.892 160.473 554.724 160.701 557.849 161.156C560.974 161.547 564.034 162.263 567.029 163.305C570.024 164.281 572.79 165.583 575.329 167.211C577.869 168.839 579.854 170.824 581.287 173.168ZM696.326 191.137L682.068 196.801C679.789 189.639 675.981 184.138 670.642 180.297C665.303 176.456 658.891 174.535 651.404 174.535C647.367 174.535 643.754 175.186 640.564 176.488C637.439 177.725 634.672 179.451 632.263 181.664C629.919 183.878 627.901 186.449 626.208 189.379C624.581 192.309 623.246 195.434 622.204 198.754C621.163 202.074 620.414 205.525 619.958 209.105C619.503 212.621 619.275 216.039 619.275 219.359C619.275 222.94 619.47 226.553 619.861 230.199C620.251 233.845 620.902 237.361 621.814 240.746C622.79 244.066 624.06 247.191 625.622 250.121C627.185 252.986 629.138 255.492 631.482 257.641C633.891 259.789 636.723 261.482 639.978 262.719C643.298 263.956 647.107 264.574 651.404 264.574C654.854 264.574 658.142 264.053 661.267 263.012C664.392 261.97 667.257 260.505 669.861 258.617C672.465 256.729 674.776 254.483 676.794 251.879C678.813 249.275 680.408 246.378 681.579 243.188L695.935 248.461C693.787 253.604 690.922 258.064 687.341 261.84C683.826 265.551 679.822 268.643 675.329 271.117C670.837 273.526 666.02 275.316 660.876 276.488C655.733 277.66 650.525 278.246 645.251 278.246C636.723 278.246 628.813 276.814 621.521 273.949C614.229 271.02 607.914 266.951 602.576 261.742C597.302 256.469 593.168 250.251 590.173 243.09C587.178 235.863 585.681 227.953 585.681 219.359C585.681 210.701 587.146 202.758 590.076 195.531C593.07 188.305 597.204 182.087 602.478 176.879C607.751 171.671 614.034 167.634 621.326 164.77C628.617 161.905 636.593 160.473 645.251 160.473C650.72 160.473 656.059 161.091 661.267 162.328C666.475 163.5 671.293 165.355 675.72 167.895C680.212 170.368 684.216 173.526 687.732 177.367C691.313 181.208 694.177 185.798 696.326 191.137ZM829.431 276H796.423V262.523C792.517 267.862 787.797 271.833 782.263 274.438C776.794 276.977 770.772 278.246 764.197 278.246C755.603 278.246 747.921 276.716 741.15 273.656C734.379 270.596 728.65 266.43 723.962 261.156C719.275 255.818 715.694 249.568 713.22 242.406C710.746 235.245 709.509 227.562 709.509 219.359C709.509 211.156 710.746 203.474 713.22 196.312C715.694 189.151 719.275 182.934 723.962 177.66C728.65 172.322 734.379 168.122 741.15 165.062C747.921 162.003 755.603 160.473 764.197 160.473C768.559 160.473 772.693 161.124 776.599 162.426C780.57 163.728 784.184 165.583 787.439 167.992C790.759 170.336 793.656 173.201 796.13 176.586C798.669 179.906 800.655 183.617 802.087 187.719L816.736 163.207H829.431V276ZM796.228 219.359C796.228 216.43 796.065 213.337 795.74 210.082C795.479 206.827 794.991 203.604 794.275 200.414C793.559 197.224 792.55 194.197 791.247 191.332C790.01 188.402 788.383 185.831 786.365 183.617C784.412 181.339 782.035 179.548 779.236 178.246C776.436 176.944 773.181 176.293 769.47 176.293C765.759 176.293 762.537 176.977 759.802 178.344C757.068 179.646 754.724 181.436 752.771 183.715C750.818 185.928 749.19 188.5 747.888 191.43C746.651 194.359 745.675 197.419 744.958 200.609C744.242 203.799 743.721 207.022 743.396 210.277C743.135 213.467 743.005 216.495 743.005 219.359C743.005 222.224 743.135 225.284 743.396 228.539C743.721 231.794 744.242 235.017 744.958 238.207C745.675 241.397 746.651 244.457 747.888 247.387C749.19 250.316 750.818 252.921 752.771 255.199C754.724 257.413 757.068 259.203 759.802 260.57C762.537 261.872 765.759 262.523 769.47 262.523C772.856 262.523 775.85 261.84 778.454 260.473C781.124 259.04 783.435 257.152 785.388 254.809C787.406 252.465 789.099 249.796 790.466 246.801C791.833 243.806 792.94 240.714 793.787 237.523C794.633 234.333 795.251 231.176 795.642 228.051C796.033 224.861 796.228 221.964 796.228 219.359ZM970.74 276H958.044L943.396 251.488C941.964 255.59 939.978 259.301 937.439 262.621C934.965 265.941 932.068 268.806 928.747 271.215C925.492 273.559 921.879 275.382 917.908 276.684C914.001 277.986 909.867 278.637 905.505 278.637C896.912 278.637 889.229 277.107 882.458 274.047C875.688 270.987 869.958 266.82 865.271 261.547C860.583 256.208 857.003 249.958 854.529 242.797C852.055 235.635 850.818 227.953 850.818 219.75C850.818 211.547 852.055 203.865 854.529 196.703C857.003 189.542 860.583 183.324 865.271 178.051C869.958 172.777 875.688 168.611 882.458 165.551C889.229 162.491 896.912 160.961 905.505 160.961C912.081 160.961 918.103 162.23 923.572 164.77C929.106 167.309 933.826 171.28 937.732 176.684V121.703H970.74V276ZM937.537 219.75C937.537 217.146 937.341 214.281 936.951 211.156C936.56 208.031 935.941 204.874 935.095 201.684C934.249 198.493 933.142 195.401 931.775 192.406C930.408 189.411 928.715 186.742 926.697 184.398C924.744 182.055 922.432 180.199 919.763 178.832C917.159 177.4 914.164 176.684 910.779 176.684C907.068 176.684 903.845 177.367 901.111 178.734C898.376 180.036 896.033 181.827 894.079 184.105C892.126 186.319 890.499 188.891 889.197 191.82C887.96 194.75 886.983 197.81 886.267 201C885.551 204.19 885.03 207.413 884.704 210.668C884.444 213.858 884.314 216.885 884.314 219.75C884.314 222.615 884.444 225.674 884.704 228.93C885.03 232.12 885.551 235.31 886.267 238.5C886.983 241.69 887.96 244.783 889.197 247.777C890.499 250.707 892.126 253.311 894.079 255.59C896.033 257.803 898.376 259.594 901.111 260.961C903.845 262.263 907.068 262.914 910.779 262.914C914.49 262.914 917.745 262.263 920.544 260.961C923.344 259.659 925.72 257.901 927.673 255.688C929.691 253.409 931.319 250.837 932.556 247.973C933.858 245.043 934.867 241.983 935.583 238.793C936.3 235.538 936.788 232.283 937.048 229.027C937.374 225.772 937.537 222.68 937.537 219.75ZM1032.95 135.961C1032.95 138.435 1032.46 140.779 1031.48 142.992C1030.57 145.206 1029.3 147.126 1027.67 148.754C1026.05 150.382 1024.13 151.684 1021.91 152.66C1019.7 153.572 1017.35 154.027 1014.88 154.027C1012.41 154.027 1010.06 153.572 1007.85 152.66C1005.7 151.684 1003.81 150.382 1002.18 148.754C1000.56 147.126 999.255 145.206 998.279 142.992C997.367 140.779 996.912 138.435 996.912 135.961C996.912 133.487 997.367 131.176 998.279 129.027C999.255 126.814 1000.56 124.893 1002.18 123.266C1003.81 121.638 1005.7 120.368 1007.85 119.457C1010.06 118.48 1012.41 117.992 1014.88 117.992C1017.35 117.992 1019.7 118.48 1021.91 119.457C1024.13 120.368 1026.05 121.638 1027.67 123.266C1029.3 124.893 1030.57 126.814 1031.48 129.027C1032.46 131.176 1032.95 133.487 1032.95 135.961ZM1031.48 276H998.376V163.305H1031.48V276ZM1172.79 276H1139.78V262.523C1135.88 267.862 1131.16 271.833 1125.62 274.438C1120.15 276.977 1114.13 278.246 1107.56 278.246C1098.96 278.246 1091.28 276.716 1084.51 273.656C1077.74 270.596 1072.01 266.43 1067.32 261.156C1062.63 255.818 1059.05 249.568 1056.58 242.406C1054.11 235.245 1052.87 227.562 1052.87 219.359C1052.87 211.156 1054.11 203.474 1056.58 196.312C1059.05 189.151 1062.63 182.934 1067.32 177.66C1072.01 172.322 1077.74 168.122 1084.51 165.062C1091.28 162.003 1098.96 160.473 1107.56 160.473C1111.92 160.473 1116.05 161.124 1119.96 162.426C1123.93 163.728 1127.54 165.583 1130.8 167.992C1134.12 170.336 1137.02 173.201 1139.49 176.586C1142.03 179.906 1144.01 183.617 1145.45 187.719L1160.1 163.207H1172.79V276ZM1139.59 219.359C1139.59 216.43 1139.42 213.337 1139.1 210.082C1138.84 206.827 1138.35 203.604 1137.63 200.414C1136.92 197.224 1135.91 194.197 1134.61 191.332C1133.37 188.402 1131.74 185.831 1129.72 183.617C1127.77 181.339 1125.39 179.548 1122.6 178.246C1119.8 176.944 1116.54 176.293 1112.83 176.293C1109.12 176.293 1105.9 176.977 1103.16 178.344C1100.43 179.646 1098.08 181.436 1096.13 183.715C1094.18 185.928 1092.55 188.5 1091.25 191.43C1090.01 194.359 1089.03 197.419 1088.32 200.609C1087.6 203.799 1087.08 207.022 1086.76 210.277C1086.49 213.467 1086.36 216.495 1086.36 219.359C1086.36 222.224 1086.49 225.284 1086.76 228.539C1087.08 231.794 1087.6 235.017 1088.32 238.207C1089.03 241.397 1090.01 244.457 1091.25 247.387C1092.55 250.316 1094.18 252.921 1096.13 255.199C1098.08 257.413 1100.43 259.203 1103.16 260.57C1105.9 261.872 1109.12 262.523 1112.83 262.523C1116.21 262.523 1119.21 261.84 1121.81 260.473C1124.48 259.04 1126.79 257.152 1128.75 254.809C1130.77 252.465 1132.46 249.796 1133.83 246.801C1135.19 243.806 1136.3 240.714 1137.15 237.523C1137.99 234.333 1138.61 231.176 1139 228.051C1139.39 224.861 1139.59 221.964 1139.59 219.359Z" fill="#FAD5BB"/>
</g>
<path d="M1117.63 339H1098.52V336.383L1110.34 319.059H1098.52V316.441H1117.63V319.059L1105.81 336.383H1117.63V339ZM1144.99 327.672C1144.99 328.844 1144.83 329.944 1144.52 330.973C1144.21 332.001 1143.77 332.952 1143.21 333.824C1142.67 334.697 1142 335.484 1141.22 336.188C1140.44 336.878 1139.58 337.464 1138.64 337.945C1137.72 338.427 1136.72 338.798 1135.65 339.059C1134.6 339.319 1133.51 339.449 1132.39 339.449C1131.27 339.449 1130.18 339.319 1129.13 339.059C1128.08 338.798 1127.08 338.427 1126.14 337.945C1125.22 337.464 1124.36 336.878 1123.58 336.188C1122.8 335.484 1122.13 334.697 1121.57 333.824C1121.02 332.952 1120.6 332.001 1120.28 330.973C1119.97 329.931 1119.81 328.831 1119.81 327.672C1119.81 326.513 1119.97 325.419 1120.28 324.391C1120.6 323.349 1121.02 322.392 1121.57 321.52C1122.13 320.647 1122.8 319.866 1123.58 319.176C1124.36 318.473 1125.22 317.88 1126.14 317.398C1127.08 316.917 1128.08 316.546 1129.13 316.285C1130.18 316.025 1131.27 315.895 1132.39 315.895C1133.51 315.895 1134.6 316.025 1135.65 316.285C1136.72 316.546 1137.72 316.917 1138.64 317.398C1139.58 317.88 1140.44 318.473 1141.22 319.176C1142 319.866 1142.67 320.647 1143.21 321.52C1143.77 322.392 1144.21 323.349 1144.52 324.391C1144.83 325.419 1144.99 326.513 1144.99 327.672ZM1138.27 327.672C1138.27 327.047 1138.23 326.389 1138.15 325.699C1138.09 324.996 1137.97 324.312 1137.8 323.648C1137.63 322.971 1137.4 322.327 1137.1 321.715C1136.81 321.09 1136.45 320.549 1136.02 320.094C1135.6 319.625 1135.08 319.254 1134.48 318.98C1133.88 318.694 1133.19 318.551 1132.39 318.551C1131.64 318.551 1130.97 318.694 1130.38 318.98C1129.79 319.267 1129.28 319.651 1128.84 320.133C1128.41 320.602 1128.04 321.148 1127.74 321.773C1127.46 322.398 1127.22 323.049 1127.04 323.727C1126.86 324.391 1126.73 325.068 1126.65 325.758C1126.57 326.435 1126.53 327.073 1126.53 327.672C1126.53 328.271 1126.57 328.915 1126.65 329.605C1126.73 330.283 1126.86 330.96 1127.04 331.637C1127.22 332.314 1127.46 332.965 1127.74 333.59C1128.04 334.202 1128.41 334.749 1128.84 335.23C1129.28 335.699 1129.79 336.077 1130.38 336.363C1130.97 336.65 1131.64 336.793 1132.39 336.793C1133.17 336.793 1133.86 336.656 1134.46 336.383C1135.06 336.096 1135.58 335.719 1136.01 335.25C1136.45 334.781 1136.81 334.241 1137.1 333.629C1137.39 333.017 1137.61 332.372 1137.78 331.695C1137.96 331.018 1138.09 330.335 1138.15 329.645C1138.23 328.954 1138.27 328.297 1138.27 327.672ZM1173 327.672C1173 328.844 1172.84 329.944 1172.53 330.973C1172.22 332.001 1171.78 332.952 1171.22 333.824C1170.67 334.697 1170.01 335.484 1169.23 336.188C1168.45 336.878 1167.59 337.464 1166.65 337.945C1165.73 338.427 1164.73 338.798 1163.66 339.059C1162.61 339.319 1161.52 339.449 1160.4 339.449C1159.28 339.449 1158.19 339.319 1157.14 339.059C1156.08 338.798 1155.09 338.427 1154.15 337.945C1153.23 337.464 1152.37 336.878 1151.59 336.188C1150.81 335.484 1150.14 334.697 1149.58 333.824C1149.03 332.952 1148.6 332.001 1148.29 330.973C1147.98 329.931 1147.82 328.831 1147.82 327.672C1147.82 326.513 1147.98 325.419 1148.29 324.391C1148.6 323.349 1149.03 322.392 1149.58 321.52C1150.14 320.647 1150.81 319.866 1151.59 319.176C1152.37 318.473 1153.23 317.88 1154.15 317.398C1155.09 316.917 1156.08 316.546 1157.14 316.285C1158.19 316.025 1159.28 315.895 1160.4 315.895C1161.52 315.895 1162.61 316.025 1163.66 316.285C1164.73 316.546 1165.73 316.917 1166.65 317.398C1167.59 317.88 1168.45 318.473 1169.23 319.176C1170.01 319.866 1170.67 320.647 1171.22 321.52C1171.78 322.392 1172.22 323.349 1172.53 324.391C1172.84 325.419 1173 326.513 1173 327.672ZM1166.28 327.672C1166.28 327.047 1166.24 326.389 1166.16 325.699C1166.1 324.996 1165.98 324.312 1165.81 323.648C1165.64 322.971 1165.41 322.327 1165.11 321.715C1164.82 321.09 1164.46 320.549 1164.03 320.094C1163.6 319.625 1163.09 319.254 1162.49 318.98C1161.89 318.694 1161.19 318.551 1160.4 318.551C1159.64 318.551 1158.97 318.694 1158.39 318.98C1157.8 319.267 1157.29 319.651 1156.85 320.133C1156.42 320.602 1156.05 321.148 1155.75 321.773C1155.46 322.398 1155.23 323.049 1155.05 323.727C1154.87 324.391 1154.74 325.068 1154.66 325.758C1154.58 326.435 1154.54 327.073 1154.54 327.672C1154.54 328.271 1154.58 328.915 1154.66 329.605C1154.74 330.283 1154.87 330.96 1155.05 331.637C1155.23 332.314 1155.46 332.965 1155.75 333.59C1156.05 334.202 1156.42 334.749 1156.85 335.23C1157.29 335.699 1157.8 336.077 1158.39 336.363C1158.97 336.65 1159.64 336.793 1160.4 336.793C1161.18 336.793 1161.87 336.656 1162.47 336.383C1163.07 336.096 1163.58 335.719 1164.01 335.25C1164.46 334.781 1164.82 334.241 1165.11 333.629C1165.39 333.017 1165.62 332.372 1165.79 331.695C1165.97 331.018 1166.1 330.335 1166.16 329.645C1166.24 328.954 1166.28 328.297 1166.28 327.672Z" fill="#F7EAE1"/>
</g>
<defs>
<filter id="filter0_d_301_2764" x="116" y="80" width="138.001" height="288" filterUnits="userSpaceOnUse" color-interpolation-filters="sRGB">
<feFlood flood-opacity="0" result="BackgroundImageFix"/>
<feColorMatrix in="SourceAlpha" type="matrix" values="0 0 0 0 0 0 0 0 0 0 0 0 0 0 0 0 0 0 127 0" result="hardAlpha"/>
<feOffset dy="4"/>
<feGaussianBlur stdDeviation="2"/>
<feComposite in2="hardAlpha" operator="out"/>
<feColorMatrix type="matrix" values="0 0 0 0 0 0 0 0 0 0 0 0 0 0 0 0 0 0 0.25 0"/>
<feBlend mode="normal" in2="BackgroundImageFix" result="effect1_dropShadow_301_2764"/>
<feBlend mode="normal" in="SourceGraphic" in2="effect1_dropShadow_301_2764" result="shape"/>
</filter>
<filter id="filter1_d_301_2764" x="324.259" y="117.992" width="852.531" height="195.891" filterUnits="userSpaceOnUse" color-interpolation-filters="sRGB">
<feFlood flood-opacity="0" result="BackgroundImageFix"/>
<feColorMatrix in="SourceAlpha" type="matrix" values="0 0 0 0 0 0 0 0 0 0 0 0 0 0 0 0 0 0 127 0" result="hardAlpha"/>
<feOffset dy="4"/>
<feGaussianBlur stdDeviation="2"/>
<feComposite in2="hardAlpha" operator="out"/>
<feColorMatrix type="matrix" values="0 0 0 0 0 0 0 0 0 0 0 0 0 0 0 0 0 0 0.25 0"/>
<feBlend mode="normal" in2="BackgroundImageFix" result="effect1_dropShadow_301_2764"/>
<feBlend mode="normal" in="SourceGraphic" in2="effect1_dropShadow_301_2764" result="shape"/>
</filter>
<clipPath id="clip0_301_2764">
<rect width="873" height="238" fill="white" transform="translate(314.001 101)"/>
</clipPath>
</defs>
</svg>
