<svg width="92" height="92" viewBox="0 0 92 92" fill="none" xmlns="http://www.w3.org/2000/svg">
<path fill-rule="evenodd" clip-rule="evenodd" d="M46.0005 26C46.2902 27.6987 47.0652 28.8351 47.6929 29.7555C48.1889 30.4827 48.593 31.0752 48.593 31.7036C48.593 33.1273 47.4323 34.2814 46.0005 34.2814C44.5687 34.2814 43.4081 33.1273 43.4081 31.7036C43.4081 31.0752 43.8121 30.4827 44.3081 29.7555C44.9358 28.8351 45.7109 27.6987 46.0005 26ZM53.5329 36.1233C53.4503 35.0129 53.3482 33.6419 53.9482 32.0262C52.8466 33.3527 51.6062 33.95 50.6015 34.4338C49.8078 34.816 49.1611 35.1274 48.8464 35.6716C48.1333 36.9046 48.5604 38.4834 49.8004 39.198C51.0403 39.9127 52.6235 39.4925 53.3366 38.2595C53.6514 37.7153 53.5982 37.0006 53.5329 36.1233ZM41.4303 34.4341C40.4256 33.9503 39.1852 33.353 38.0836 32.0265C38.6836 33.6422 38.5815 35.0131 38.4989 36.1236C38.4336 37.0009 38.3804 37.7156 38.6952 38.2598C39.4082 39.4928 40.9915 39.9129 42.2314 39.1983C43.4714 38.4837 43.8985 36.9048 43.1854 35.6719C42.8707 35.1277 42.224 34.8163 41.4303 34.4341ZM45.2507 38.6945L45.2507 38.6945L37.0605 60.5853L37.0605 60.5853C36.8923 61.035 36.8081 61.2599 36.8553 61.42C36.8964 61.5595 36.9962 61.6743 37.1286 61.7342C37.2807 61.8031 37.515 61.7509 37.9837 61.6465L37.9837 61.6465L42.2016 60.7071L45.4355 65.2846C45.6556 65.5961 45.7656 65.7518 45.9024 65.8068C46.0221 65.8549 46.1557 65.8549 46.2754 65.8068C46.4122 65.7518 46.5222 65.5961 46.7423 65.2846L49.952 60.7413L54.0163 61.6465L54.0164 61.6465C54.485 61.7509 54.7194 61.8031 54.8714 61.7342C55.0039 61.6743 55.1037 61.5595 55.1448 61.42C55.1919 61.2599 55.1078 61.035 54.9395 60.5853L46.7493 38.6945C46.5175 38.075 46.4016 37.7652 46.2332 37.6764C46.0873 37.5995 45.9128 37.5995 45.7669 37.6764C45.5984 37.7652 45.4825 38.075 45.2507 38.6945ZM45.339 46.479C45.5708 45.8616 45.6867 45.5529 45.855 45.4643C46.0008 45.3875 46.1751 45.3875 46.3209 45.4643C46.4892 45.5529 46.6051 45.8616 46.8369 46.479L47.6784 48.7205C47.8148 49.0838 47.883 49.2654 47.8505 49.4107C47.8221 49.5379 47.7452 49.6489 47.6361 49.7202C47.5115 49.8017 47.3175 49.8017 46.9295 49.8017H45.2464C44.8584 49.8017 44.6644 49.8017 44.5398 49.7202C44.4307 49.6489 44.3538 49.5379 44.3254 49.4107C44.2929 49.2654 44.3611 49.0838 44.4975 48.7205L45.339 46.479Z" fill="#FAD5BB"/>
</svg>
