<svg width="360" height="249" viewBox="0 0 360 249" fill="none" xmlns="http://www.w3.org/2000/svg">
<path fill-rule="evenodd" clip-rule="evenodd" d="M180.001 32C180.58 35.3974 182.13 37.6702 183.386 39.511C184.378 40.9655 185.186 42.1503 185.186 43.4071C185.186 46.2545 182.865 48.5629 180.001 48.5629C177.137 48.5629 174.816 46.2545 174.816 43.4071C174.816 42.1503 175.624 40.9655 176.616 39.511L176.616 39.511C177.872 37.6702 179.422 35.3974 180.001 32ZM195.066 52.2466C194.901 50.0257 194.696 47.2838 195.896 44.0525C193.693 46.7055 191.212 47.9001 189.203 48.8676C187.616 49.6321 186.322 50.2548 185.693 51.3432C184.267 53.8091 185.121 56.9668 187.601 58.3961C190.081 59.8254 193.247 58.985 194.673 56.5191C195.303 55.4307 195.196 54.0013 195.066 52.2466ZM170.861 48.8681C168.851 47.9006 166.37 46.706 164.167 44.053C165.367 47.2843 165.163 50.0263 164.998 52.2471C164.867 54.0018 164.761 55.4312 165.39 56.5196C166.816 58.9855 169.983 59.8259 172.463 58.3966C174.943 56.9673 175.797 53.8097 174.371 51.3437C173.741 50.2554 172.448 49.6326 170.861 48.8681ZM178.501 57.389L178.501 57.389L162.121 101.171C161.785 102.07 161.616 102.52 161.711 102.84C161.793 103.119 161.992 103.349 162.257 103.469C162.561 103.606 163.03 103.502 163.967 103.293L172.403 101.414L178.871 110.569C179.311 111.192 179.531 111.504 179.805 111.614C180.044 111.71 180.311 111.71 180.551 111.614C180.824 111.504 181.044 111.192 181.485 110.569L187.904 101.483L196.033 103.293C196.97 103.502 197.439 103.606 197.743 103.469C198.008 103.349 198.207 103.119 198.29 102.84C198.384 102.52 198.216 102.07 197.879 101.171L181.499 57.389C181.035 56.1499 180.803 55.5304 180.466 55.3528C180.175 55.199 179.826 55.199 179.534 55.3528C179.197 55.5304 178.965 56.1499 178.501 57.389ZM178.678 72.9581C179.142 71.7232 179.373 71.1058 179.71 70.9285C180.002 70.775 180.35 70.775 180.642 70.9285C180.978 71.1058 181.21 71.7232 181.674 72.9581L183.357 77.441C183.63 78.1675 183.766 78.5308 183.701 78.8215C183.644 79.0758 183.49 79.2978 183.272 79.4404C183.023 79.6034 182.635 79.6034 181.859 79.6034H178.493C177.717 79.6034 177.329 79.6034 177.08 79.4404C176.861 79.2978 176.708 79.0758 176.651 78.8215C176.586 78.5308 176.722 78.1675 176.995 77.441L178.678 72.9581Z" fill="#FAD5BB"/>
<g clip-path="url(#clip0_301_2804)">
<path d="M87.9375 176.469V177.062C87.8958 178.812 87.7083 180.625 87.375 182.5C87.0625 184.375 86.6146 186.25 86.0312 188.125C85.4479 190 84.75 191.854 83.9375 193.688C83.125 195.521 82.2083 197.271 81.1875 198.938C80.1875 200.625 79.1042 202.198 77.9375 203.656C76.7708 205.135 75.5417 206.438 74.25 207.562L69.5938 204.875C70.3229 203.646 70.9792 202.302 71.5625 200.844C72.1667 199.406 72.7083 197.896 73.1875 196.312C73.6667 194.729 74.0729 193.104 74.4062 191.438C74.7604 189.771 75.0521 188.115 75.2812 186.469C75.5104 184.823 75.6771 183.208 75.7812 181.625C75.9062 180.021 75.9688 178.5 75.9688 177.062C75.9688 175.938 75.9583 174.667 75.9375 173.25C75.9375 171.812 75.8542 170.354 75.6875 168.875C75.5417 167.396 75.2917 165.958 74.9375 164.562C74.5833 163.146 74.0521 161.885 73.3438 160.781C72.6562 159.677 71.7604 158.792 70.6562 158.125C69.5729 157.458 68.2188 157.125 66.5938 157.125C65.1562 157.125 63.9167 157.375 62.875 157.875C61.8542 158.354 60.9792 159.01 60.25 159.844C59.5417 160.656 58.9688 161.604 58.5312 162.688C58.1146 163.771 57.7812 164.917 57.5312 166.125C57.3021 167.312 57.1458 168.521 57.0625 169.75C57 170.958 56.9688 172.104 56.9688 173.188V181.906H70.4375V187.062H56.9688V198H44.5625V175.125C44.5625 171.854 45.0833 168.812 46.125 166C47.1667 163.188 48.6354 160.75 50.5312 158.688C52.4479 156.604 54.7396 154.979 57.4062 153.812C60.0938 152.625 63.0833 152.031 66.375 152.031C68.6042 152.031 70.6875 152.354 72.625 153C74.5833 153.625 76.3646 154.5 77.9688 155.625C79.5729 156.729 81 158.052 82.25 159.594C83.5208 161.115 84.5729 162.781 85.4062 164.594C86.2604 166.406 86.9062 168.323 87.3438 170.344C87.7812 172.365 87.9792 174.406 87.9375 176.469ZM125.531 165.094L119.594 174.938C119.344 174.104 119.021 173.167 118.625 172.125C118.229 171.083 117.74 170.115 117.156 169.219C116.573 168.302 115.875 167.542 115.062 166.938C114.25 166.312 113.312 166 112.25 166C111.271 166 110.417 166.25 109.688 166.75C108.979 167.25 108.375 167.906 107.875 168.719C107.375 169.51 106.958 170.417 106.625 171.438C106.312 172.438 106.062 173.458 105.875 174.5C105.708 175.521 105.594 176.51 105.531 177.469C105.469 178.406 105.438 179.219 105.438 179.906V198H94.8438V161.906H98.9062L103.188 170.312C103.771 168.958 104.438 167.719 105.188 166.594C105.938 165.448 106.802 164.469 107.781 163.656C108.76 162.823 109.865 162.177 111.094 161.719C112.344 161.26 113.75 161.031 115.312 161.031C116.125 161.031 117.031 161.104 118.031 161.25C119.031 161.375 120.01 161.604 120.969 161.938C121.927 162.25 122.812 162.667 123.625 163.188C124.438 163.708 125.073 164.344 125.531 165.094ZM162.344 170.844L157.781 172.656C157.052 170.365 155.833 168.604 154.125 167.375C152.417 166.146 150.365 165.531 147.969 165.531C146.677 165.531 145.521 165.74 144.5 166.156C143.5 166.552 142.615 167.104 141.844 167.812C141.094 168.521 140.448 169.344 139.906 170.281C139.385 171.219 138.958 172.219 138.625 173.281C138.292 174.344 138.052 175.448 137.906 176.594C137.76 177.719 137.688 178.812 137.688 179.875C137.688 181.021 137.75 182.177 137.875 183.344C138 184.51 138.208 185.635 138.5 186.719C138.812 187.781 139.219 188.781 139.719 189.719C140.219 190.635 140.844 191.438 141.594 192.125C142.365 192.812 143.271 193.354 144.312 193.75C145.375 194.146 146.594 194.344 147.969 194.344C149.073 194.344 150.125 194.177 151.125 193.844C152.125 193.51 153.042 193.042 153.875 192.438C154.708 191.833 155.448 191.115 156.094 190.281C156.74 189.448 157.25 188.521 157.625 187.5L162.219 189.188C161.531 190.833 160.615 192.26 159.469 193.469C158.344 194.656 157.062 195.646 155.625 196.438C154.188 197.208 152.646 197.781 151 198.156C149.354 198.531 147.688 198.719 146 198.719C143.271 198.719 140.74 198.26 138.406 197.344C136.073 196.406 134.052 195.104 132.344 193.438C130.656 191.75 129.333 189.76 128.375 187.469C127.417 185.156 126.938 182.625 126.938 179.875C126.938 177.104 127.406 174.562 128.344 172.25C129.302 169.938 130.625 167.948 132.312 166.281C134 164.615 136.01 163.323 138.344 162.406C140.677 161.49 143.229 161.031 146 161.031C147.75 161.031 149.458 161.229 151.125 161.625C152.792 162 154.333 162.594 155.75 163.406C157.188 164.198 158.469 165.208 159.594 166.438C160.74 167.667 161.656 169.135 162.344 170.844ZM204.938 198H194.375V193.688C193.125 195.396 191.615 196.667 189.844 197.5C188.094 198.312 186.167 198.719 184.062 198.719C181.312 198.719 178.854 198.229 176.688 197.25C174.521 196.271 172.688 194.938 171.188 193.25C169.688 191.542 168.542 189.542 167.75 187.25C166.958 184.958 166.562 182.5 166.562 179.875C166.562 177.25 166.958 174.792 167.75 172.5C168.542 170.208 169.688 168.219 171.188 166.531C172.688 164.823 174.521 163.479 176.688 162.5C178.854 161.521 181.312 161.031 184.062 161.031C185.458 161.031 186.781 161.24 188.031 161.656C189.302 162.073 190.458 162.667 191.5 163.438C192.562 164.188 193.49 165.104 194.281 166.188C195.094 167.25 195.729 168.438 196.188 169.75L200.875 161.906H204.938V198ZM194.312 179.875C194.312 178.938 194.26 177.948 194.156 176.906C194.073 175.865 193.917 174.833 193.688 173.812C193.458 172.792 193.135 171.823 192.719 170.906C192.323 169.969 191.802 169.146 191.156 168.438C190.531 167.708 189.771 167.135 188.875 166.719C187.979 166.302 186.938 166.094 185.75 166.094C184.562 166.094 183.531 166.312 182.656 166.75C181.781 167.167 181.031 167.74 180.406 168.469C179.781 169.177 179.26 170 178.844 170.938C178.448 171.875 178.135 172.854 177.906 173.875C177.677 174.896 177.51 175.927 177.406 176.969C177.323 177.99 177.281 178.958 177.281 179.875C177.281 180.792 177.323 181.771 177.406 182.812C177.51 183.854 177.677 184.885 177.906 185.906C178.135 186.927 178.448 187.906 178.844 188.844C179.26 189.781 179.781 190.615 180.406 191.344C181.031 192.052 181.781 192.625 182.656 193.062C183.531 193.479 184.562 193.688 185.75 193.688C186.833 193.688 187.792 193.469 188.625 193.031C189.479 192.573 190.219 191.969 190.844 191.219C191.49 190.469 192.031 189.615 192.469 188.656C192.906 187.698 193.26 186.708 193.531 185.688C193.802 184.667 194 183.656 194.125 182.656C194.25 181.635 194.312 180.708 194.312 179.875ZM250.156 198H246.094L241.406 190.156C240.948 191.469 240.312 192.656 239.5 193.719C238.708 194.781 237.781 195.698 236.719 196.469C235.677 197.219 234.521 197.802 233.25 198.219C232 198.635 230.677 198.844 229.281 198.844C226.531 198.844 224.073 198.354 221.906 197.375C219.74 196.396 217.906 195.062 216.406 193.375C214.906 191.667 213.76 189.667 212.969 187.375C212.177 185.083 211.781 182.625 211.781 180C211.781 177.375 212.177 174.917 212.969 172.625C213.76 170.333 214.906 168.344 216.406 166.656C217.906 164.969 219.74 163.635 221.906 162.656C224.073 161.677 226.531 161.188 229.281 161.188C231.385 161.188 233.312 161.594 235.062 162.406C236.833 163.219 238.344 164.49 239.594 166.219V148.625H250.156V198ZM239.531 180C239.531 179.167 239.469 178.25 239.344 177.25C239.219 176.25 239.021 175.24 238.75 174.219C238.479 173.198 238.125 172.208 237.688 171.25C237.25 170.292 236.708 169.438 236.062 168.688C235.438 167.938 234.698 167.344 233.844 166.906C233.01 166.448 232.052 166.219 230.969 166.219C229.781 166.219 228.75 166.438 227.875 166.875C227 167.292 226.25 167.865 225.625 168.594C225 169.302 224.479 170.125 224.062 171.062C223.667 172 223.354 172.979 223.125 174C222.896 175.021 222.729 176.052 222.625 177.094C222.542 178.115 222.5 179.083 222.5 180C222.5 180.917 222.542 181.896 222.625 182.938C222.729 183.958 222.896 184.979 223.125 186C223.354 187.021 223.667 188.01 224.062 188.969C224.479 189.906 225 190.74 225.625 191.469C226.25 192.177 227 192.75 227.875 193.188C228.75 193.604 229.781 193.812 230.969 193.812C232.156 193.812 233.198 193.604 234.094 193.188C234.99 192.771 235.75 192.208 236.375 191.5C237.021 190.771 237.542 189.948 237.938 189.031C238.354 188.094 238.677 187.115 238.906 186.094C239.135 185.052 239.292 184.01 239.375 182.969C239.479 181.927 239.531 180.938 239.531 180ZM270.062 153.188C270.062 153.979 269.906 154.729 269.594 155.438C269.302 156.146 268.896 156.76 268.375 157.281C267.854 157.802 267.24 158.219 266.531 158.531C265.823 158.823 265.073 158.969 264.281 158.969C263.49 158.969 262.74 158.823 262.031 158.531C261.344 158.219 260.74 157.802 260.219 157.281C259.698 156.76 259.281 156.146 258.969 155.438C258.677 154.729 258.531 153.979 258.531 153.188C258.531 152.396 258.677 151.656 258.969 150.969C259.281 150.26 259.698 149.646 260.219 149.125C260.74 148.604 261.344 148.198 262.031 147.906C262.74 147.594 263.49 147.438 264.281 147.438C265.073 147.438 265.823 147.594 266.531 147.906C267.24 148.198 267.854 148.604 268.375 149.125C268.896 149.646 269.302 150.26 269.594 150.969C269.906 151.656 270.062 152.396 270.062 153.188ZM269.594 198H259V161.938H269.594V198ZM314.812 198H304.25V193.688C303 195.396 301.49 196.667 299.719 197.5C297.969 198.312 296.042 198.719 293.938 198.719C291.188 198.719 288.729 198.229 286.562 197.25C284.396 196.271 282.562 194.938 281.062 193.25C279.562 191.542 278.417 189.542 277.625 187.25C276.833 184.958 276.438 182.5 276.438 179.875C276.438 177.25 276.833 174.792 277.625 172.5C278.417 170.208 279.562 168.219 281.062 166.531C282.562 164.823 284.396 163.479 286.562 162.5C288.729 161.521 291.188 161.031 293.938 161.031C295.333 161.031 296.656 161.24 297.906 161.656C299.177 162.073 300.333 162.667 301.375 163.438C302.438 164.188 303.365 165.104 304.156 166.188C304.969 167.25 305.604 168.438 306.062 169.75L310.75 161.906H314.812V198ZM304.188 179.875C304.188 178.938 304.135 177.948 304.031 176.906C303.948 175.865 303.792 174.833 303.562 173.812C303.333 172.792 303.01 171.823 302.594 170.906C302.198 169.969 301.677 169.146 301.031 168.438C300.406 167.708 299.646 167.135 298.75 166.719C297.854 166.302 296.812 166.094 295.625 166.094C294.438 166.094 293.406 166.312 292.531 166.75C291.656 167.167 290.906 167.74 290.281 168.469C289.656 169.177 289.135 170 288.719 170.938C288.323 171.875 288.01 172.854 287.781 173.875C287.552 174.896 287.385 175.927 287.281 176.969C287.198 177.99 287.156 178.958 287.156 179.875C287.156 180.792 287.198 181.771 287.281 182.812C287.385 183.854 287.552 184.885 287.781 185.906C288.01 186.927 288.323 187.906 288.719 188.844C289.135 189.781 289.656 190.615 290.281 191.344C290.906 192.052 291.656 192.625 292.531 193.062C293.406 193.479 294.438 193.688 295.625 193.688C296.708 193.688 297.667 193.469 298.5 193.031C299.354 192.573 300.094 191.969 300.719 191.219C301.365 190.469 301.906 189.615 302.344 188.656C302.781 187.698 303.135 186.708 303.406 185.688C303.677 184.667 303.875 183.656 304 182.656C304.125 181.635 304.188 180.708 304.188 179.875Z" fill="#FAD5BB"/>
<path d="M289.281 217H281.641V215.953L286.367 209.023H281.641V207.977H289.281V209.023L284.555 215.953H289.281V217ZM300.227 212.469C300.227 212.938 300.164 213.378 300.039 213.789C299.914 214.201 299.74 214.581 299.516 214.93C299.297 215.279 299.031 215.594 298.719 215.875C298.406 216.151 298.062 216.385 297.688 216.578C297.318 216.771 296.919 216.919 296.492 217.023C296.07 217.128 295.635 217.18 295.188 217.18C294.74 217.18 294.305 217.128 293.883 217.023C293.461 216.919 293.062 216.771 292.688 216.578C292.318 216.385 291.977 216.151 291.664 215.875C291.352 215.594 291.083 215.279 290.859 214.93C290.641 214.581 290.469 214.201 290.344 213.789C290.219 213.372 290.156 212.932 290.156 212.469C290.156 212.005 290.219 211.568 290.344 211.156C290.469 210.74 290.641 210.357 290.859 210.008C291.083 209.659 291.352 209.346 291.664 209.07C291.977 208.789 292.318 208.552 292.688 208.359C293.062 208.167 293.461 208.018 293.883 207.914C294.305 207.81 294.74 207.758 295.188 207.758C295.635 207.758 296.07 207.81 296.492 207.914C296.919 208.018 297.318 208.167 297.688 208.359C298.062 208.552 298.406 208.789 298.719 209.07C299.031 209.346 299.297 209.659 299.516 210.008C299.74 210.357 299.914 210.74 300.039 211.156C300.164 211.568 300.227 212.005 300.227 212.469ZM297.539 212.469C297.539 212.219 297.523 211.956 297.492 211.68C297.466 211.398 297.419 211.125 297.352 210.859C297.284 210.589 297.19 210.331 297.07 210.086C296.956 209.836 296.812 209.62 296.641 209.438C296.469 209.25 296.263 209.102 296.023 208.992C295.784 208.878 295.505 208.82 295.188 208.82C294.885 208.82 294.617 208.878 294.383 208.992C294.148 209.107 293.943 209.26 293.766 209.453C293.594 209.641 293.448 209.859 293.328 210.109C293.214 210.359 293.12 210.62 293.047 210.891C292.974 211.156 292.922 211.427 292.891 211.703C292.859 211.974 292.844 212.229 292.844 212.469C292.844 212.708 292.859 212.966 292.891 213.242C292.922 213.513 292.974 213.784 293.047 214.055C293.12 214.326 293.214 214.586 293.328 214.836C293.448 215.081 293.594 215.299 293.766 215.492C293.943 215.68 294.148 215.831 294.383 215.945C294.617 216.06 294.885 216.117 295.188 216.117C295.5 216.117 295.776 216.062 296.016 215.953C296.255 215.839 296.461 215.688 296.633 215.5C296.81 215.312 296.956 215.096 297.07 214.852C297.185 214.607 297.276 214.349 297.344 214.078C297.417 213.807 297.466 213.534 297.492 213.258C297.523 212.982 297.539 212.719 297.539 212.469ZM311.43 212.469C311.43 212.938 311.367 213.378 311.242 213.789C311.117 214.201 310.943 214.581 310.719 214.93C310.5 215.279 310.234 215.594 309.922 215.875C309.609 216.151 309.266 216.385 308.891 216.578C308.521 216.771 308.122 216.919 307.695 217.023C307.273 217.128 306.839 217.18 306.391 217.18C305.943 217.18 305.508 217.128 305.086 217.023C304.664 216.919 304.266 216.771 303.891 216.578C303.521 216.385 303.18 216.151 302.867 215.875C302.555 215.594 302.286 215.279 302.062 214.93C301.844 214.581 301.672 214.201 301.547 213.789C301.422 213.372 301.359 212.932 301.359 212.469C301.359 212.005 301.422 211.568 301.547 211.156C301.672 210.74 301.844 210.357 302.062 210.008C302.286 209.659 302.555 209.346 302.867 209.07C303.18 208.789 303.521 208.552 303.891 208.359C304.266 208.167 304.664 208.018 305.086 207.914C305.508 207.81 305.943 207.758 306.391 207.758C306.839 207.758 307.273 207.81 307.695 207.914C308.122 208.018 308.521 208.167 308.891 208.359C309.266 208.552 309.609 208.789 309.922 209.07C310.234 209.346 310.5 209.659 310.719 210.008C310.943 210.357 311.117 210.74 311.242 211.156C311.367 211.568 311.43 212.005 311.43 212.469ZM308.742 212.469C308.742 212.219 308.727 211.956 308.695 211.68C308.669 211.398 308.622 211.125 308.555 210.859C308.487 210.589 308.393 210.331 308.273 210.086C308.159 209.836 308.016 209.62 307.844 209.438C307.672 209.25 307.466 209.102 307.227 208.992C306.987 208.878 306.708 208.82 306.391 208.82C306.089 208.82 305.82 208.878 305.586 208.992C305.352 209.107 305.146 209.26 304.969 209.453C304.797 209.641 304.651 209.859 304.531 210.109C304.417 210.359 304.323 210.62 304.25 210.891C304.177 211.156 304.125 211.427 304.094 211.703C304.062 211.974 304.047 212.229 304.047 212.469C304.047 212.708 304.062 212.966 304.094 213.242C304.125 213.513 304.177 213.784 304.25 214.055C304.323 214.326 304.417 214.586 304.531 214.836C304.651 215.081 304.797 215.299 304.969 215.492C305.146 215.68 305.352 215.831 305.586 215.945C305.82 216.06 306.089 216.117 306.391 216.117C306.703 216.117 306.979 216.062 307.219 215.953C307.458 215.839 307.664 215.688 307.836 215.5C308.013 215.312 308.159 215.096 308.273 214.852C308.388 214.607 308.479 214.349 308.547 214.078C308.62 213.807 308.669 213.534 308.695 213.258C308.727 212.982 308.742 212.719 308.742 212.469Z" fill="#F7EAE1"/>
</g>
<defs>
<clipPath id="clip0_301_2804">
<rect width="280" height="73" fill="white" transform="translate(40 144)"/>
</clipPath>
</defs>
</svg>
